<?xml version="1.0" encoding="UTF-8"?>
<svg id="Laag_1" xmlns="http://www.w3.org/2000/svg" version="1.1" viewBox="0 0 170.08 170.08">
  <!-- Generator: Adobe Illustrator 29.8.6, SVG Export Plug-In . SVG Version: 2.1.1 Build 1)  -->
  <defs>
    <style>
      .st0 {
        fill: #93c01f;
      }

      .st1 {
        fill: none;
        stroke: #e73b3b;
        stroke-miterlimit: 10;
        stroke-width: .59px;
      }

      .st2 {
        fill: #e73b3b;
      }
    </style>
  </defs>
  <path class="st2" d="M138.22,82.64c.15,14.51-5.96,28.95-17.94,39.01-21.27,17.83-52.96,15.06-70.8-6.2-17.83-21.26-15.06-52.95,6.2-70.79,14.08-11.81,32.73-14.58,48.9-8.93l-6.54,6.55c-13.56-5.44-29.61-3.42-41.58,6.63-17.33,14.54-19.59,40.38-5.05,57.7,14.54,17.33,40.37,19.59,57.7,5.05,9-7.55,13.94-18.16,14.56-29.03h14.54Z"/>
  <path class="st2" d="M102.68,82.64h9.65c-1.38,7.17-5.14,13.94-11.17,19.01-13.95,11.7-34.72,9.88-46.42-4.06-11.7-13.93-9.89-34.72,4.06-46.42,10.1-8.48,23.8-9.85,35.03-4.66l-4.47,4.46c-9.11-4.55-20.45-3.6-28.78,3.35-11.19,9.35-12.68,26-3.33,37.2,9.34,11.19,26,12.69,37.2,3.34,4-3.34,6.76-7.61,8.23-12.23Z"/>
  <path class="st1" d="M60.58,54.32c-11.19,9.35-12.68,26-3.33,37.2,9.34,11.19,26,12.69,37.2,3.34,4-3.34,6.76-7.61,8.23-12.23h9.65c-1.38,7.17-5.14,13.94-11.17,19.01-13.95,11.7-34.72,9.88-46.42-4.06-11.7-13.93-9.89-34.72,4.06-46.42,10.1-8.48,23.8-9.85,35.03-4.66l-4.47,4.46c-9.11-4.55-20.45-3.6-28.78,3.35Z"/>
  <path class="st0" d="M84.07,81.57c-6.11,5.09-15.19,4.29-20.29-1.83-5.1-6.11-4.29-15.19,1.82-20.29,6.11-5.1,15.19-4.29,20.29,1.82,5.1,6.11,4.28,15.19-1.83,20.29Z"/>
  <path class="st1" d="M120.29,121.65c-21.27,17.83-52.96,15.06-70.8-6.2-17.83-21.26-15.06-52.95,6.2-70.79,14.08-11.81,32.73-14.58,48.9-8.93l-6.54,6.55c-13.56-5.44-29.61-3.42-41.58,6.63-17.33,14.54-19.59,40.38-5.05,57.7,14.54,17.33,40.37,19.59,57.7,5.05,9-7.55,13.94-18.16,14.56-29.03h14.54c.15,14.51-5.96,28.95-17.94,39.01Z"/>
  <path class="st2" d="M85.9,61.28c5.1,6.11,4.28,15.19-1.83,20.29-6.11,5.09-15.19,4.29-20.29-1.83-5.1-6.11-4.29-15.19,1.82-20.29,6.11-5.1,15.19-4.29,20.29,1.82Z"/>
</svg>